<?xml version="1.0" encoding="utf-8"?>
<!-- Generator: Adobe Illustrator 27.5.0, SVG Export Plug-In . SVG Version: 6.00 Build 0)  -->
<svg version="1.1" id="Layer_1" xmlns="http://www.w3.org/2000/svg" xmlns:xlink="http://www.w3.org/1999/xlink" x="0px" y="0px"
	 viewBox="0 0 1131.024 754.016" style="enable-background:new 0 0 1131.024 754.016;" xml:space="preserve">
<rect style="fill-rule:evenodd;clip-rule:evenodd;fill:#231F20;" width="1131.024" height="754.016"/>
<g>
	<path style="opacity:0.711;fill:#ED1C24;" d="M12.129,536.286c4.774-2.457,9.549-4.915,14.322-7.372
		c-1.415-3.41-20.009-6.953-26.451-5.944v20.274c0.039-0.091,0.08-0.168,0.124-0.218C3.188,539.825,8.158,538.593,12.129,536.286z"
		/>
	<path style="opacity:0.5161;fill:#ED1C24;" d="M38.878,666.03c21.854,6.147,39.583-5.508,46.337-19.588
		c-0.07-0.07-0.14-0.14-0.211-0.211c-5.43,4.399-9.238,8.553-17.06,10.952c-10.732,3.292-23.07,0.178-30.33-4.212
		c-21.057-12.734-38.453-48.055-20.641-77.088c4.288-6.989,10.544-13.142,17.482-17.482c29.637-18.542,74.234,2.54,94.78,16.218
		c5.897,4.282,11.795,8.566,17.692,12.848c-2.881-5.135-7.382-9.035-10.952-13.48c-14.02-17.455-38.431-32.531-62.555-39.808
		c-28.658-8.644-53.511,4.312-66.135,20.43c-2.429,3.101-5.829,6.484-7.161,10.531c-0.041,0-0.082,0-0.124,0V632.9
		c0.041,0.021,0.083,0.041,0.124,0.062C4.488,646.716,24.258,661.917,38.878,666.03z"/>
	<path style="opacity:0.8288;fill:#ED1C24;" d="M146.927,674.876c2.201-5.653,3.52-12.027,4.844-18.324
		c2.781-13.223,0.423-29.477-3.159-39.597c-9.778-27.623-31.912-47.833-62.765-54.341c-25.439-5.366-46.826,9.113-55.183,23.379
		c-2.489,4.248-5.652,12.001-4.423,19.377c1.957,11.746,5.823,21.777,15.165,25.907c11.291,4.992,26.324-0.662,26.538-12.637
		c14.563,0.131,23,13.564,18.535,28.645c-4.621,15.608-14.821,27.369-25.275,37.28c-22.066,0.43-37.53-6.688-49.917-16.007
		c-2.969-2.234-9.147-6.449-11.287-9.64v26.657c3.902,2.191,7.806,4.382,11.708,6.573c9.327,4.112,20.861,8.079,33.068,8.846
		c0,0.281,0,0.562,0,0.842c-5.221,3.67-8.511,9.914-13.059,14.322C21.146,714.35,10.571,712.541,0,710.732v23.999
		c5.727,0.759,11.457,1.518,17.184,2.277c0,0.07,0,0.14,0,0.211c-0.211,0.351-0.421,0.702-0.632,1.053
		C11.035,741.721,5.517,745.17,0,748.618v5.398h27.611c0.035-0.052,0.07-0.104,0.104-0.157c2.326-0.815,4.039-2.688,5.897-4.002
		c6.772-4.786,12.636-10.096,18.956-15.165c21.31-17.091,38.028-41.613,46.969-70.98c2.976-9.776,6.528-24.686,3.581-37.28
		c-3.555-15.188-21.98-37.255-41.914-25.485c-5.002,2.953-7.229,6.879-10.11,12.005c-0.07,0-0.14,0-0.211,0
		c-1.86-1.869-3.773-4.126-4.844-6.74c-5.632-13.74,5.908-23.622,14.744-26.96c3.37-0.702,6.74-1.404,10.11-2.106
		c42.053-0.617,71.198,40.145,57.5,83.828c-10.278,32.777-32.836,53.25-56.657,72.454c-6.406,5.165-8.925,14.726-14.702,20.587
		h15.44c0.035-0.052,0.07-0.104,0.104-0.157c6.599-5.125,13.2-10.251,19.799-15.375
		C116.014,721.579,135.516,704.184,146.927,674.876z"/>
	<path style="opacity:0.8867;fill:#ED1C24;" d="M283.411,622.641c13.446-3.404,33.187-3.003,46.758,0
		c2.599,0.575,15.465,4.177,16.429,3.581c-0.14-0.14-0.281-0.281-0.421-0.421c-3.51-4.142-7.021-8.285-10.531-12.427
		c-3.861-0.983-7.723-1.966-11.584-2.949c-12.925-3.555-32.049-5.67-47.179-2.317c-35.329,7.831-59.39,27.605-77.298,52.866
		c-3.58,5.897-7.162,11.795-10.742,17.692c-2.246,4.493-4.494,8.987-6.74,13.48c-19.711,1.882-41.213,23.719-49.917,37.491
		c-3.541,5.603-6.79,11.775-9.478,18.114c-0.726,1.712-1.029,5.01-2.569,6.265h23.264c0.052-0.052,0.104-0.104,0.157-0.157
		c2.783-8.318,10.901-16.471,17.482-21.273c2.597-1.615,5.196-3.23,7.793-4.844c0.281,0,0.562,0,0.843,0
		c-1.193,4.914-2.387,9.83-3.581,14.744c-0.539,3.843-1.079,7.687-1.618,11.53h22.05c-0.21-16.516,5.875-34.6,10.74-46.915
		C213.15,666.894,238.628,633.98,283.411,622.641z"/>
	<path style="opacity:0.7339;fill:#ED1C24;" d="M1081.038,710.682c-17.416,3.349-31.531,6.323-45.495,12.427
		c-7.294,3.188-13.808,7.66-20.641,11.163c-2.106-1.685-4.213-3.37-6.319-5.055c-5.397-3.836-11.633-7.555-17.903-10.32
		c-10.093-4.452-21.094-7.333-33.278-9.899c-5.335-0.632-10.672-1.264-16.007-1.896c-13.086-2.172-35.115-0.018-46.337,2.317
		c-4.984,1.123-9.97,2.247-14.954,3.37c-3.089-1.193-6.179-2.387-9.267-3.581c-6.701-2.109-13.897-2.9-21.483-4.212
		c-12.299-2.128-29.741,0.161-39.808,2.527c-25.744,6.053-44.523,14.613-61.923,28.434c-6.492,5.157-10.738,12.331-16.592,18.06
		h26.056c0.285-0.333,0.571-0.666,0.856-0.999c2.948-2.317,5.898-4.634,8.846-6.951c5.335-3.229,10.672-6.459,16.007-9.689
		c15.464-8.982,33.664-11.948,55.183-15.165c20.253-3.028,42.946,7.031,55.394,12.848c3.264,1.525,14.39,9.28,17.482,7.582
		c0.351-1.123,0.702-2.247,1.053-3.37c-3.722-6.267-11.488-9.408-16.429-14.533c0.07-0.14,0.14-0.281,0.211-0.421
		c10.67-1.825,21.344-3.651,32.015-5.476c6.107-0.562,12.217-1.123,18.324-1.685c14.913-0.303,35.033,11.825,44.441,18.114
		c3.652,2.441,9.525,5.314,11.795,9.057c-0.904,1.179-9.028,8.677-11.565,10.688h38.841c0.035-0.052,0.07-0.104,0.104-0.157
		c4.001-2.036,8.004-4.072,12.005-6.108c7.854-3.444,16.128-6.475,24.854-9.057c7.749-2.292,16.083-3.196,24.643-4.634
		c3.721-0.281,7.442-0.562,11.163-0.842c9.104-0.08,20.736-0.642,28.713,1.235v-23.861c-5.85-0.532-11.701-1.064-17.55-1.596
		C1104.386,707.528,1088.467,709.253,1081.038,710.682z"/>
	<path style="opacity:0.6976;fill:#ED1C24;" d="M20.765,497.321c15.448-11.93,28.396-29.612,38.754-46.548
		c9.484-15.506,17.064-32.165,22.115-52.234c5.648-22.442,3.076-53.109-2.527-73.297C65.745,277.107,43.971,242.744,0,225.32v19.409
		c10.056,5.018,19.078,13.943,25.82,22.383c15.875,19.872,25.185,38.569,32.015,68.031c2.185,9.428,4.904,25.663,2.949,37.491
		c-1.438,8.701-0.6,16.689-2.317,24.432c-6.8,30.66-20.633,52.403-35.595,74.56C16.461,481.118,8.928,494.491,0,501.253v7.541
		c2.147-0.805,4.295-1.611,6.442-2.416C11.582,503.826,16.386,500.702,20.765,497.321z"/>
	<path style="opacity:0.507;fill:#ED1C24;" d="M303.841,651.075c7.873-2.444,16.363-3.595,25.275-5.055
		c12.128-1.987,25.347,0.491,36.438,1.053c-0.07-0.14-0.14-0.281-0.211-0.421c-7.039-1.454-14.092-4.846-21.483-6.74
		c-7.303-1.871-15.024-1.803-23.168-3.159c-4.385-0.73-10.005-0.002-13.69,0.632c-13.62,2.343-24,4.491-34.542,9.057
		c-33.546,14.529-54.451,40.254-65.504,77.298c-2.647,8.872-5.056,19.24-5.248,30.276h14.987c0.826-4.335,1.651-8.67,2.477-13.005
		c2.169-8.588,5.124-16.516,8.425-24.011C241.528,685.363,269.029,661.882,303.841,651.075z"/>
	<path style="opacity:0.8795;fill:#ED1C24;" d="M15.71,451.406c11.286-18.819,18.368-38.54,23.59-63.819
		c1.821-8.816,3.718-24.253,1.896-34.963c-1.229-7.223-1.46-14.41-3.159-21.062c-3.243-12.695-7.57-24.15-13.48-34.121
		C19.832,289.47,8.233,271.819,0,268.091v11.927c3.361,3.405,8.803,20.959,10.655,26.268c4.752,13.619,6.522,27.735,9.057,44.441
		c0.625,4.119,1.367,9.953,0.632,14.744c-2.804,18.286-5.132,29.91-11.163,44.231C6.803,415.349,3.874,425.557,0,429.8v45.248
		c1.375-1.702,2.75-3.405,4.125-5.108C7.987,463.763,11.849,457.583,15.71,451.406z"/>
	<path style="opacity:0.7698;fill:#ED1C24;" d="M25.693,0H0v1.149c3.481,2.158,6.963,4.317,10.444,6.475
		C13.71,8.585,22.231,1.911,25.693,0z"/>
	<path style="opacity:0.7268;fill:#ED1C24;" d="M54.675,16.681C58.944,10.323,64.433,4.102,70.949,0H56.262
		c-5.626,3.032-9.39,6.558-11.907,12.679c1.324,0.782,3.455,0.661,5.055,1.264C51.164,14.856,52.92,15.768,54.675,16.681z"/>
	<path style="opacity:0.5029;fill:#ED1C24;" d="M15.92,212.138c4.963-3.983,11.58-10.274,14.112-16.429
		c0.562-3.51,1.123-7.021,1.685-10.531c1.376-5.482,3.133-10.733,5.266-15.586c3.574-8.133,8.925-15.443,14.112-22.115
		c2.145-2.76,5.457-5.083,6.951-8.425c6.726-15.052,11.985-29.534,15.375-47.811c1.312-7.074,0.822-16.33-0.421-22.747
		C68.178,43.611,62.093,24.439,42.88,14.154c1.685,2.808,3.37,5.617,5.055,8.425c2.826,6.404,4.226,12.792,5.687,20.852
		c0.514,2.838,1.824,8.948,0.632,12.005c-0.14-0.07-0.281-0.14-0.421-0.211c-0.66-5.673-5.692-9.975-8.635-13.69
		C35.908,29.809,17.1,16.822,0,13.172v16.851c4.861,1.029,9.556,3.797,13.393,6.036c15.748,9.187,30.296,21.258,33.91,42.335
		c-0.421,2.948-0.843,5.898-1.264,8.846c-1.451,8.003-1.774,15.975-3.581,23.168c-6.764,26.929-17.518,45.635-32.015,64.24
		C7.295,178.689,4.057,183.472,0,186.62v32.082C6.703,221.823,11.548,215.648,15.92,212.138z"/>
	<path style="opacity:0.8056;fill:#ED1C24;" d="M15.92,138.631c10.238-14.533,20.11-39.995,12.848-64.661
		c-3.377-11.469-8.318-20.045-14.744-28.223C10.644,41.444,5.457,34.915,0,32.81v18.432c2.194,1.762,3.391,5.723,4.547,8.406
		c7.415,17.213,6.995,42.372,0.632,60.449c-1.398,3.971-2.467,9.693-5.179,12.54v22.515C5.375,153.198,12.755,143.124,15.92,138.631
		z"/>
	<path style="opacity:0.6402;fill:#ED1C24;" d="M713.502,684.775c9.723-12.377,20.767-31.276,16.218-54.762
		c-7.586-39.166-46.089-64.702-95.412-53.498c-9.391,2.133-17.53,4.241-25.275,7.582c-2.36,1.018-7.012,2.042-8.214,4.212
		c10.625-5.005,36.465-7.05,50.971-4.212c32.168,6.292,57.593,18.185,64.24,49.707c4.424,20.98-8.78,37.874-21.905,43.178
		c-5.884,2.377-19.813,3.672-24.222-1.264c0.07-0.14,0.14-0.281,0.211-0.421c14.033-2.442,25.746-21.665,18.745-38.755
		c-4.714-11.507-14.802-18.207-26.538-22.747c-0.07,0.14-0.14,0.281-0.211,0.421c3.789,7.575,9.704,13.433,12.427,22.326
		c4.549,14.857-3.273,28.818-15.375,31.172c-1.683-2.268-6.329-7.037-6.108-10.531c0.632-1.334,1.264-2.668,1.896-4.002
		c1.524-3.865,3.574-10.346,2.738-15.797c-2.032-13.251-7.454-21.215-17.482-26.328c-2.231-1.138-7.616-4.152-10.952-2.949
		c-1.451,0.764-5.548,10.147-4.212,11.374c3.233,1.329,6.341,1.513,9.057,3.159c7.976,4.836,13.13,17.435,9.267,30.119
		c-1.046,3.436-2.711,6.529-4.212,9.478c0.549,2.83,2.661,4.83,4.002,6.951c6.065,9.594,14.768,20.098,28.434,21.905
		c0.07,0.14,0.14,0.281,0.211,0.421c-10.273,14.183-18.527,28.901-24.432,47.811c-1.411,4.52-3.296,9.55-3.935,14.69h25.419
		c0-0.052,0-0.104,0-0.157c8.023-21.545,18.268-38.442,31.172-54.762C704.515,694.324,709.009,689.549,713.502,684.775z"/>
	<path style="opacity:0.6873;fill:#ED1C24;" d="M840.717,740.169c-4.774,0.281-9.549,0.562-14.322,0.843
		c-12.336,2.3-22.669,3.79-32.857,7.793c-3.647,1.433-7.4,3.694-10.876,5.212h101.791c-4.093-2.142-8.239-5.363-12.774-7.318
		C862.441,742.716,852.516,742.183,840.717,740.169z"/>
	<path style="opacity:0.7755;fill:#ED1C24;" d="M935.919,723.74c-3.318,0.115-5.648,1.957-8.004,3.159
		c-11.272,5.753-17.559,13.222-20.737,27.116h19.816c2.87-5.869,6.59-8.562,11.241-12.583c3.271,0.959,15.381,9.684,18.281,12.583
		h4.51C957.69,744.534,943.331,729.237,935.919,723.74z"/>
	<path style="opacity:0.8712;fill:#ED1C24;" d="M363.447,735.114c-19.256-7.713-39.342,4.9-44.066,18.902h27.362
		c0.092-0.122,0.184-0.245,0.275-0.367c1.544-0.562,3.089-1.123,4.634-1.685c3.321-0.129,5.963,0.456,7.561,2.052h22.753
		C377.875,745.271,372.594,738.778,363.447,735.114z"/>
	<path style="opacity:0.6053;fill:#ED1C24;" d="M106.699,88.503c10.587,2.329,30.715,0.517,37.912-3.581
		c-1.474-3.019-2.949-6.038-4.423-9.057c-2.631-5.989-4.343-12.497-5.897-19.588c-3.395-15.492-0.297-35.048,4.212-46.548
		c1.419-3.243,2.838-6.487,4.257-9.73H96.917c-2.777,2.05-5.555,4.1-8.332,6.15c-9.003,7.187-14.489,18.818-17.06,32.436
		c-0.998,5.286-0.43,12.141,0.632,16.639C76.688,74.423,87.213,84.216,106.699,88.503z M98.063,30.371
		c2.785-6.452,8.072-13.109,13.269-17.271c2.106-1.615,4.213-3.23,6.319-4.844c0.211,0,0.421,0,0.632,0
		c-3.368,11.058-2.771,29.27,0.421,40.018c1.615,4.493,3.23,8.987,4.844,13.48c-0.07,0.07-0.14,0.14-0.211,0.211
		C102.53,62.306,89.347,50.569,98.063,30.371z"/>
	<path style="opacity:0.7599;fill:#ED1C24;" d="M564.802,640.123c-17.817-6.103-39.921-5.503-57.711,0
		c-3.852,1.191-10.994,2.092-13.48,4.844c0,0.07,0,0.14,0,0.211c0.07,0,0.14,0,0.211,0c3.495-1.571,11.317-0.687,15.586-0.421
		c14.897,0.927,27.559,1.987,38.544,6.319c39.442,15.555,69.009,48.25,69.077,102.94h14.192
		C641.021,692.888,607.585,654.779,564.802,640.123z"/>
	<path style="opacity:0.8774;fill:#ED1C24;" d="M1126.953,752.806c0.211,0.281,0.421,0.562,0.632,0.843
		c0.245,0.122,0.49,0.245,0.734,0.367h2.704v-4.386C1129.465,750.36,1127.69,751.627,1126.953,752.806z"/>
	<path style="opacity:0.6237;fill:#ED1C24;" d="M799.646,698.676c9.045-2.708,18.691-3.69,28.645-5.476
		c6.736-1.209,19.082-2.197,26.117-1.053c2.948,0,5.898,0,8.846,0c9.196,0.772,18.395,1.545,27.591,2.317
		c23.81,4.297,58.185,9,83.828,3.37c21.233-4.662,36.163-12.712,50.339-24.011c8.286-6.605,17.596-16.7,20.641-28.223
		c0.141-0.07,0.281-0.14,0.421-0.211c12.048,0.373,18.7,14.951,15.375,28.223c-2.782,11.105-10.144,19.682-18.114,25.696
		c-1.831,1.382-14.62,8.203-14.954,8.846c23.584,0.041,39.846-9.394,47.179-26.117c9.4-21.434,0.149-43.595-17.06-50.339
		c-9.457-3.706-23.501-0.99-29.908,3.581c-2.317,3.44-4.634,6.881-6.951,10.32c-4.302,5.862-10.004,11.418-15.797,15.797
		c-21.477,16.234-58.717,25.537-96.465,18.745c-7.371-0.842-14.744-1.685-22.115-2.527c-3.039-1.052-9.334-14.641-10.952-18.324
		c-13.122-29.865-12.406-68.531,5.476-93.095c4.477-6.15,10.415-11.598,16.639-16.007c1.824-1.292,7.974-3.795,8.425-5.476
		c-29.632,11.098-45.876,28.312-53.498,61.291c-2.132,9.227-4.074,23.156-2.106,34.542c1.588,9.188,3.111,17.564,6.108,25.275
		c1.404,3.51,2.808,7.021,4.212,10.531c-3.398,0.052-9.015,0.869-11.374-0.211c-2.655-10.529-5.755-21.038-8.004-32.857
		c-6.534-34.343,7.55-73.56,25.275-87.83c4.726-3.805,9.282-7.881,14.533-11.163c3.019-1.474,6.038-2.949,9.057-4.423
		c0-0.07,0-0.14,0-0.211c-8.277,0.41-15.248,3.659-20.852,6.951c-21.642,12.713-33.498,32.913-40.861,60.027
		c-2.085,7.678-1.905,15.685-3.37,24.853c-0.14,3.159-0.281,6.319-0.421,9.478c1.355,8.277,1.432,16.188,3.581,23.379
		c1.615,4.423,3.23,8.847,4.844,13.269c-0.14,0-0.281,0-0.421,0c-4.633,0.632-9.268,1.264-13.901,1.896
		c-6.248,1.404-12.498,2.808-18.745,4.212c-0.07-0.14-0.14-0.281-0.211-0.421c4.432-9.226,8.463-18.777,11.163-30.119
		c4.597-19.308,4.029-42.103,9.267-60.238c10.111-35.006,32.309-60.515,68.873-69.084c30.267-7.093,52.596,12.305,58.974,33.068
		c3.941,12.83,2.479,29.811-6.529,35.806c-1.302,0.866-3.873,2.307-5.476,2.106c0-0.07,0-0.14,0-0.211
		c9.122-7.758,5.118-23.254-2.527-29.276c-13.19-10.39-30.107-5.215-40.861,3.37c-13.04,10.411-21.07,37.306-12.637,58.764
		c5.966,15.182,16.562,25.451,31.804,31.383c20.299,7.9,47.203,1.118,61.712-7.372c20.183-11.81,34.412-26.281,43.388-49.286
		c15.703-40.244-2.774-88.713-26.538-107.839c-12.177-9.8-24.607-18.007-41.071-23.8c-8.576-3.018-17.982-4.354-27.802-6.108
		c-20.731-3.704-45.056,0.38-61.291,5.266c-49.634,14.936-80.753,43.745-98.993,89.936c-6.083,15.405-8.213,32.093-11.374,50.971
		c-0.281,9.196-0.562,18.395-0.842,27.591c-1.94,11.835-2.616,21.652-6.319,30.961c-3.327,8.364-12.103,24.914-18.535,29.698
		c-6.22,4.626-12.692,8.744-17.482,14.744c-8.801,11.024-16.694,24.541-20.52,40.385h18.203c0-0.052,0-0.104,0-0.157
		c7.343-20.187,15.831-38.039,28.434-52.866c3.51-2.246,7.021-4.494,10.531-6.74c7.983-6.03,14.508-14.478,18.745-24.222
		c3.536-8.132,4.716-17.789,6.529-27.802c0.351-4.212,0.702-8.425,1.053-12.637c3.573-19.834,4.077-39.832,10.531-56.447
		c16.319-42.007,40.057-65.235,82.775-80.879c19.338-7.082,49.472-9.268,70.98-2.527c12.245,3.837,22.722,9.62,31.804,16.639
		c21.222,16.401,39.061,55.371,24.432,90.989c-8.503,20.703-25.295,35.653-49.918,40.229c-23.444,4.357-39.015-11.05-42.335-28.855
		c-3.111-16.686,10.84-37.633,26.328-28.013c0,0.211,0,0.421,0,0.632c-7.908,4.208-8.049,17.574-2.527,24.222
		c9.759,11.75,31.84,2.626,38.333-5.476c3.378-4.215,6.462-8.926,8.425-14.533c12.933-36.941-17.317-71.011-41.282-80.458
		c-17.611-6.942-45.239-4.22-61.291,2.106c-38.597,15.212-56.66,43.596-67.399,86.776c-6.862,27.59-4.87,61.741-17.482,83.196
		c-3.769,6.412-8.772,13.861-14.533,18.324c-5.195,2.738-10.391,5.476-15.586,8.214c-8.064,4.826-15.185,10.689-22.326,16.429
		c-8.793,7.068-14.137,20.707-17.903,32.646c0.07,0,0.14,0,0.211,0c1.685-1.966,3.37-3.932,5.055-5.897
		c5.658-5.659,11.732-11.324,18.114-16.218C753.279,716.659,774.755,706.128,799.646,698.676z"/>
	<path style="opacity:0.5088;fill:#ED1C24;" d="M454.857,734.693c-0.07,0.07-0.14,0.14-0.211,0.211c0,0.281,0,0.562,0,0.843
		c4.344,6.714,12.236,11.753,16.139,18.27h23.362C487.194,742.559,471.468,736.855,454.857,734.693z"/>
	<path style="opacity:0.7428;fill:#ED1C24;" d="M327.431,695.517c-24.625,7.586-48.938,31.439-53.827,58.499h23.918
		c0-0.052,0-0.104,0-0.157c5.979-15.786,14.169-27.816,29.276-34.331c4.773-2.059,10.655-2.015,15.586-4.002
		c20.084-0.322,32.004,6.902,40.439,18.114c3.304,4.391,6.203,9.835,8.214,15.375c0.449,1.667,0.898,3.334,1.346,5.001h23.269
		c-0.625-8.15-6.732-18.584-10.293-24.378C392.293,708.376,364.3,684.159,327.431,695.517z"/>
	<path style="opacity:0.8683;fill:#ED1C24;" d="M488.346,717.632c-7.468-2.26-21.653-2.29-26.749,2.317c0,0.07,0,0.14,0,0.211
		c16.843,0.53,38.146,20.133,42.598,33.856h19.203C519.123,735.553,505.862,722.931,488.346,717.632z"/>
	<path style="opacity:0.8719;fill:#ED1C24;" d="M532.998,660.764c-18.772-7.358-49.178-7.938-68.452-0.421
		c-15.594,6.081-30.048,14.474-41.282,25.064c-2.5-0.602-11.58-9.68-14.744-11.795c-11.072-7.399-23.311-13.082-38.123-16.85
		c-21.216-5.397-48.823-2.254-65.714,4.423c-38.773,15.326-66.262,45.972-73.22,92.83h23.588
		c5.108-35.44,28.537-60.236,57.847-71.768c5.987-2.356,12.692-3.506,19.588-4.844c3.089-0.281,6.179-0.562,9.267-0.842
		c51.398-0.817,85.193,33.874,92.377,77.455h23.861c-0.595-11.589-7.741-30.054-12.401-38.069
		c-2.004-3.447-7.982-10.792-8.425-14.533c2.948-3.089,5.898-6.179,8.846-9.267c8.436-6.797,17.004-12.447,28.855-16.007
		c16.258-4.883,37.752-1.931,50.549,3.581c26.755,11.522,46.197,36.047,45.497,74.296h23.797
		C595.386,703.751,568.746,674.775,532.998,660.764z"/>
	<path style="opacity:0.6499;fill:#ED1C24;" d="M517.202,698.887c-12.672-4.456-35.078-2.329-41.914,6.108
		c9.06-0.705,16.676,1.706,22.958,4.423c17.28,7.475,29.476,19.748,29.483,44.598h24.443
		C552.84,723.546,539.545,706.743,517.202,698.887z"/>
	<path style="opacity:0.9995;fill:#ED1C24;" d="M122.074,745.434c-5.577,1.82-11.297,2.676-16.429,4.844
		c-2.184,0.922-4.14,2.634-6.048,3.737h19.631c1.089-2.79,2.178-5.581,3.267-8.371C122.355,745.575,122.214,745.504,122.074,745.434
		z"/>
	<path style="opacity:0.843;fill:#ED1C24;" d="M1113.895,155.271c-5.541,4.447-11.421,8.76-17.692,12.427
		c-3.3,1.474-6.6,2.949-9.899,4.423c19.854-0.266,32.192-8.458,44.721-15.848v-20.637c-1.076,1.56-2.152,3.121-3.228,4.681
		C1123.879,145.535,1118.97,151.198,1113.895,155.271z"/>
	<path style="opacity:0.7214;fill:#ED1C24;" d="M1096.413,6.36c-5.498-0.917-13.014-0.181-17.692,0.632
		c-4.774,0.632-9.549,1.264-14.322,1.896c-11.476,2.701-21.953,6.28-31.594,10.531c-31.233,13.773-56.038,35.885-66.767,70.137
		c-3.163,10.099-7.127,25.042-4.844,38.965c0.562,4.423,1.123,8.847,1.685,13.269c0.913,3.65,1.825,7.302,2.738,10.952
		c-0.07,0.07-0.14,0.14-0.211,0.211c-11.925-0.097-23.8,0.896-33.91,3.37c-2.552,0.625-9.685,3.406-11.374,2.527
		c3.232-7.803,5.615-16.539,7.582-25.696c2.068-9.628,2.684-22.891,1.053-33.068c-1.109-6.919-1.366-13.095-3.159-19.167
		c-9.146-30.964-27.995-51.295-56.236-63.187c-14.192-5.976-36.83-11.471-56.868-7.161c-31.206,6.711-57.692,27.018-69.084,53.287
		c-3.279,7.561-11.7,41.303,2.317,43.388c-0.211-12.099,6.718-38.576,12.427-43.599c0.07,0,0.14,0,0.211,0
		c-4.651,24.07,5.04,43.209,19.588,52.234c8.642,5.361,21.396,6.578,30.119,0.211c4.904-3.58,7.487-9.483,8.635-16.85
		c-0.07-2.387-0.14-4.774-0.211-7.161c1.006-1.907,3.763-2.559,5.897-3.37c9.746-3.704,18.346,1.358,22.115,7.582
		c4.084,6.743,3.583,18.653,0.843,26.328c-5.718,16.015-18.097,24.77-36.648,28.013c-29.784,5.207-57.533-21.778-69.295-36.438
		c-6.988-8.71-11.104-17.829-24.853-20.009c-0.07,0.07-0.14,0.14-0.211,0.211c0.491,8.536,7.253,19.327,10.952,25.485
		c12.788,21.29,30.259,37.176,56.236,45.284c33.175,10.355,63.483-2.709,76.456-24.011c14.98-24.597,10.202-62.564-14.112-73.297
		c-17.082-7.54-36.597-2.577-40.44,14.112c-1.236,5.367,0.63,10.262,1.474,14.533c-0.281,0-0.562,0-0.842,0
		c-25.372-9.852-20.728-40.889-2.106-54.13c12.904-9.175,32.409-10.976,49.917-4.634c23.997,8.692,43.899,24.923,51.602,49.917
		c8.31,26.963-1.112,66.311-13.269,82.353c-2.563,3.382-12.049,7.197-16.007,9.689c-8.451,5.32-15.549,12.191-23.168,18.324
		c-10.066,8.102-18.614,19.422-26.538,29.698c-17.745,23.012-32.855,46.982-41.071,79.826
		c-10.181,40.697,1.905,84.503,18.956,108.681c3.14,4.453,13.49,19.107,18.956,19.799c3.65-3.159,7.302-6.319,10.952-9.478
		c0-0.281,0-0.562,0-0.842c-5.185-4.121-8.758-11.223-12.216-17.06c-18.739-31.634-24.114-78.506-8.214-117.527
		c18.87-46.311,57.336-89.818,106.996-105.311c16.598-5.178,42.284-10.131,65.082-6.529c9.678,1.529,19.288,2.08,28.013,4.634
		c43.679,12.786,66.568,41.122,79.615,84.46c5.565,18.486,8.28,46.805,3.581,68.663c-2.967,13.801-6.927,26.128-12.005,37.701
		c-12.023,27.403-32.571,48.001-55.604,64.45c-4.774,3.229-9.549,6.459-14.322,9.689c-2.668,1.264-5.336,2.528-8.004,3.791
		c14.387-0.749,27.152-4.125,38.123-8.425c40.132-15.731,60.508-45.451,73.718-88.04c10.009-32.268,9.937-76.337-1.896-106.996
		c-15.47-40.084-42.577-69.354-82.353-85.091c-13.453-5.323-28.281-6.989-44.231-10.32c-2.453-5.449-4.239-11.746-5.687-18.114
		c-3.744-16.467,0.153-34.676,5.266-46.548c11.456-26.604,31.666-43.997,60.659-53.077c21.228-6.648,52.15-8.767,70.348,2.317
		c3.786,2.306,9.034,6.159,11.864,10.053V31.959c-2.321-1.238-7.619-4.124-7.862-4.536c2.62,0.749,5.241,1.498,7.862,2.246V12.637
		c-4.586-1.179-9.173-2.359-13.759-3.538C1110.315,8.186,1103.363,7.273,1096.413,6.36z"/>
	<path style="opacity:0.5645;fill:#ED1C24;" d="M1097.045,425.92c-21.621,13.63-46.334,23.357-74.56,30.54
		c-12.004,2.246-24.012,4.493-36.016,6.74c-0.07,0.281-0.14,0.562-0.211,0.843c18.862,10.13,38.467,29.919,51.181,46.548
		c4.186,5.474,8.228,10.83,12.005,16.85c0.772,1.123,1.545,2.247,2.317,3.37c-0.491,3.229-0.983,6.459-1.474,9.689
		c-1.422,7.785-1.883,16.38-1.896,24.853c-0.036,23.931,3.334,42.937,7.793,61.291c12.91,5.389,21.922,12.208,25.485,26.749
		c0.843,3.44-0.435,14.062,0.632,16.218c1.264,1.404,2.528,2.808,3.791,4.212c7.736,9.684,19.024,18.293,32.646,21.905
		c-2.036-1.615-4.072-3.23-6.108-4.844c-3.229-3.51-6.459-7.021-9.689-10.531c-12.063-15.48-20.684-33.303-27.17-54.551
		c-6.069-19.88-8.271-51.821-3.581-75.192c7.515-37.446,18.596-69.35,35.174-97.729c5.848-10.01,11.07-19.973,17.061-29.487
		c1.926-3.059,3.884-7.905,6.598-10.538v-15.603c-2.761,2.886-5.522,5.773-8.283,8.66
		C1114.347,412.686,1106.371,420.041,1097.045,425.92z M1056.206,510.03c-5.647-12.706-38.4-41.788-38.4-41.788
		c50.418-9.892,73.412-27.671,73.412-27.671C1072.3,460.619,1056.206,510.03,1056.206,510.03z"/>
	<path style="opacity:0.5127;fill:#ED1C24;" d="M1105.47,212.56c9.319,0.686,17.763,3.323,25.554,5.796v-29.897
		c-6.201,6.067-12.403,12.136-18.604,18.203C1110.441,208.244,1106.49,210.169,1105.47,212.56z"/>
	<path style="opacity:0.6877;fill:#ED1C24;" d="M964.563,5.097c-0.14-0.211-0.281-0.421-0.421-0.632
		c-0.812-1.488-1.624-2.977-2.435-4.465h-3.658C959.223,1.755,962.825,4.555,964.563,5.097z"/>
	<path style="opacity:0.914;fill:#ED1C24;" d="M940.342,91.031c-1.033,5.572-4.195,29.118-1.896,34.121
		c3.786,0.057,10.339,0.925,13.269-0.421c-0.125-8.033,1.157-15.704,2.527-22.537c1.574-7.845,2.438-14.909,4.634-21.905
		c7.776-24.782,23.524-45.645,41.703-60.238c7.05-5.659,13.777-11.235,21.694-16.218c1.852-1.278,3.705-2.555,5.558-3.833h-38.584
		c-2.611,2.611-5.224,5.224-7.835,7.835c-1.966,2.176-3.932,4.353-5.897,6.529c-4.212,5.476-8.425,10.953-12.637,16.429
		C951.016,47.7,944.919,66.333,940.342,91.031z"/>
	<path style="opacity:0.8645;fill:#ED1C24;" d="M1108.84,220.142c1.195,3.097,4.006,13.724,6.108,15.375
		c4.641,3.646,11.531,4.559,16.076,8.194v-18.816c-6.347-2.462-14.013-4.944-21.973-5.175
		C1108.98,219.861,1108.91,220.002,1108.84,220.142z"/>
	<path style="opacity:0.848;fill:#ED1C24;" d="M1130.879,0c0.05,0.011,0.097,0.022,0.145,0.034V0H1130.879z"/>
	<path style="opacity:0.6538;fill:#ED1C24;" d="M1120.003,511.854c3.673-0.838,7.348-1.676,11.021-2.514v-6.855
		c-4.02,2.37-6.801,6.739-11.232,8.948C1119.862,511.573,1119.932,511.714,1120.003,511.854z"/>
	<path style="opacity:0.9299;fill:#ED1C24;" d="M929.389,44.062c2.508,1.283,12.154,6.605,15.165,5.687
		c1.217-0.938,6.826-13.959,7.161-16.007c-0.211-0.14-0.421-0.281-0.632-0.421C937.432,26.338,921.447,21.838,926.568,0h-19.514
		C906.298,25.174,912.324,35.332,929.389,44.062z"/>
	<path style="opacity:0.7932;fill:#ED1C24;" d="M1131.024,275.788v-9.309c-2.62-1.685-5.241-3.37-7.862-5.054
		C1125.496,266.137,1128.794,271.023,1131.024,275.788z"/>
	<path style="opacity:0.9678;fill:#ED1C24;" d="M1102.521,508.063c0.281,0,0.562,0,0.843,0c5.546-5.546,11.093-11.093,16.639-16.639
		c3.673-4.64,7.348-9.281,11.021-13.921v-44.255c-4.547,8.523-10.003,17.003-13.97,26.162
		C1110.564,474.394,1106.661,490.013,1102.521,508.063z"/>
	<path style="opacity:0.5117;fill:#ED1C24;" d="M332.907,109.776c15.435,4.556,37.438,3.491,52.234-0.632
		c31.978-8.91,55.75-29.593,68.031-58.132C458.36,38.957,462.907,16.87,458.12,0h-23.872c0.53,6.521,2.225,14.054,1.021,21.315
		c-0.906,5.461-1.25,10.735-2.738,15.586c-6.817,22.229-22.591,36.32-41.914,46.126c-19.594,9.944-46.542,9.98-64.872-1.264
		c-16.897-10.365-25.492-26.354-29.908-49.496c-0.765-4.007-1.841-9.904-1.053-14.744c0.962-5.909,2.06-12.051,2.296-17.523h-23.684
		c-5.46,17.385-0.982,42.142,4.327,55.857C288.096,82.65,304.276,101.325,332.907,109.776z"/>
	<path style="opacity:0.9702;fill:#ED1C24;" d="M358.392,46.168c13.293-3.102,28.772-17.479,25.907-36.016
		C383.725,6.44,382.9,3.219,382.27,0h-21.834c0.021,0.014,0.046,0.027,0.063,0.042c7.72,5.754,2.438,21.619-8.846,19.588
		c-6.339-1.141-12.291-7.175-9.267-15.375c0.967-1.418,1.934-2.836,2.901-4.254h-26.341
		C308.905,25.371,331.297,52.49,358.392,46.168z"/>
	<path style="opacity:0.7035;fill:#ED1C24;" d="M214.327,108.723c3.089,0.772,6.179,1.545,9.267,2.317
		c5.054,1.586,9.986,4.584,14.744,5.897c-0.351-0.421-0.702-0.843-1.053-1.264c-5.482-2.69-15.876-16.766-19.798-22.115
		C199.705,69.313,186.337,42.238,186.317,0h-21.731c-4.079,40.429,13.279,67.694,30.153,88.924
		C198.884,94.14,208.728,105.699,214.327,108.723z"/>
	<path style="opacity:0.6142;fill:#ED1C24;" d="M386.826,68.283c14.796-6.471,25.588-19.292,29.698-36.438
		c0.491-4.212,0.983-8.425,1.474-12.637c1.136-6.967-1.321-13.483-2.056-19.208h-23.172c1.151,9.621,3.621,20.768,1.006,31.003
		c-5.174,20.251-28.816,37.759-55.183,27.381c-7.09-2.791-13.056-7.145-17.903-12.216c-1.635-1.71-3.07-6.252-5.266-7.161
		C319.455,68.371,356.821,81.406,386.826,68.283z"/>
	<path style="opacity:0.8738;fill:#ED1C24;" d="M500.562,61.122c-2.317,3.44-4.634,6.881-6.951,10.32c0.07,0,0.14,0,0.211,0
		c4.875-2.147,9.789-3.521,14.112-6.108C529.912,52.183,547.591,30.517,552.105,0h-24.398c-0.278,4.001-0.859,11.248-2.922,13.732
		c-0.07,0-0.14,0-0.211,0c0.286-4.972-0.291-9.57-0.991-13.732H504.64c1.072,5.646,2.837,11.544,3.927,17.945
		C511.151,33.125,505.722,52.301,500.562,61.122z"/>
	<path style="opacity:0.8653;fill:#ED1C24;" d="M733.089,50.802c-1.615,4.844-3.23,9.689-4.844,14.533
		c1.053,2.149,3.818,4.301,5.687,5.687c0.211,0,0.421,0,0.632,0c5.056-36.446,38.626-57.383,71.822-66.346
		c13.25-3.577,32.466-5.258,47.601-2.106c14.969,3.118,27.063,8.04,39.386,13.48c5.125,2.668,10.251,5.336,15.375,8.004
		c-3.631-7.582-8.738-13.987-14.954-18.956c-2.156-1.699-4.313-3.398-6.469-5.097H779.931c-0.028,0.014-0.056,0.028-0.084,0.042
		c-5.828,4.515-12.698,7.787-18.535,12.427C749.384,21.95,739.43,35.838,733.089,50.802z"/>
	<path style="opacity:0.7964;fill:#ED1C24;" d="M311.424,142.423c26.185,10.598,64.482,12.709,92.463,1.896
		c24.626-9.517,44.311-23.335,61.291-40.439c12.967-13.062,31.199-34.903,37.701-53.709c3.207-9.274,3.862-23.316,0.842-33.278
		c-1.975-6.516-5.183-11.969-8.727-16.892h-23.29c2.833,5.208,5.887,10.051,7.795,16.47c7.526,25.322-8.649,43.522-18.956,56.657
		c-23.462,29.9-72.951,69.826-129.743,52.024c-42.878-13.44-67.697-48.276-76.667-96.044c-1.783-9.496,0.374-20.152,0.619-29.108
		h-23.392C226.071,69.878,263.508,123.029,311.424,142.423z"/>
	<path style="opacity:0.7228;fill:#ED1C24;" d="M242.761,103.879c-3.398-6.571-8.052-12.749-11.163-19.799
		c-7.86-17.808-11.479-33.585-15.375-56.026c-1.569-9.037,0.194-19.348,0.41-28.055h-14.947
		c-0.642,35.949,8.785,61.809,23.383,83.448C228.558,88.621,237.507,101.377,242.761,103.879z"/>
	<path style="opacity:0.6027;fill:#ED1C24;" d="M722.98,49.959c7.38-16.881,16.713-30.532,27.381-43.809
		c1.724-2.146,3.492-4.414,5.636-6.15H730.24c-1.858,2.822-3.717,5.645-5.576,8.467c-4.642,7.737-8.722,16.606-11.584,25.907
		c-2.753,8.944-2.958,18.526-4.634,29.066c0,4.142,0,8.285,0,12.427C712.659,74.297,720.666,55.252,722.98,49.959z"/>
	<path style="opacity:0.7996;fill:#ED1C24;" d="M705.498,89.556c-1.123-6.248-2.247-12.498-3.37-18.745
		c-0.842-7.16-1.685-14.323-2.527-21.483c-2.724-16.58,2.401-36.624,5.387-49.327h-18.146c-7.026,21.051-6.81,56.678,1.176,75.866
		C690.834,82.637,694.203,93.358,705.498,89.556z"/>
	<path style="opacity:0.5597;fill:#ED1C24;" d="M626.515,17.102c1.648-5.7,3.297-11.402,4.945-17.102H616.8
		c-0.272,4.015-0.544,8.032-0.817,12.047C616.91,13.45,625.695,17.913,626.515,17.102z"/>
	<path style="opacity:0.9843;fill:#ED1C24;" d="M662.32,92.294c1.685,1.404,3.37,2.808,5.055,4.212
		c1.053,3.721,2.106,7.442,3.159,11.163c2.929,7.515,6.659,14.752,10.742,21.273c17.579,28.075,42.834,52.712,77.509,63.608
		c8.973,2.82,18.508,3.294,29.066,5.055c10.557,1.761,27.624-1.739,35.174-4.002c31.113-9.327,52.865-25.052,64.872-53.287
		c2.288-5.379,3.904-11.305,5.266-17.482c5.778-26.212-6.672-51.577-21.484-60.87c-4.95-3.106-10.612-4.14-16.639-6.529
		c1.025,2.581,8.013,6.444,10.11,9.057c5.602,6.983,10.077,14.768,12.427,25.064c3.629,15.902-0.154,34.057-5.055,45.284
		c-13.589,31.128-53.561,54.33-100.467,41.493c-26.226-7.178-51.546-24.268-66.346-42.967c-4.352-5.827-8.706-11.655-13.059-17.482
		c-2.789-4.19-5.068-8.844-8.214-12.637c0-0.07,0-0.14,0-0.211c2.028,0.468,4.001,1.194,6.74,1.264
		c-0.403-3.104-3.186-5.682-4.634-8.004c-4.503-7.225-9.349-14.563-12.848-22.537c-4.644-10.582-12.41-31.058-9.899-47.811
		c1.417-9.458,2.73-17.853,4.753-25.948h-25.295c-7.723,25.023-2.731,60.778,7.694,78.183
		C654.029,83.329,658.035,88.3,662.32,92.294z"/>
	<path style="opacity:0.5294;fill:#ED1C24;" d="M489.61,85.555c-4.072,7.16-8.144,14.323-12.216,21.483c0.421,0,0.843,0,1.264,0
		c10.825-3.097,21.564-3.63,31.172-7.372c29.672-11.554,51.421-26.541,67.82-51.181C585.799,36.241,594.36,19.68,594.489,0h-23.588
		c-0.081,14.979-5.721,27.756-11.576,37.322C544.081,62.23,521.902,77.538,489.61,85.555z"/>
	<path style="opacity:0.852;fill:#ED1C24;" d="M115.755,336.616c0,0.07,0,0.14,0,0.211c5.922,11.313,12.172,21.562,15.375,36.016
		c0.884,3.991,0.402,18.799,2.738,20.641c10.672,8.416,22.456,15.261,36.648,20.22c22.657,7.916,54.135,5.818,75.824-1.053
		c30.741-9.738,56.313-27.198,73.928-50.128c6.87-8.943,12.855-18.626,19.588-27.802c3.83-5.22,8.951-9.33,12.848-14.322
		c-0.281,0-0.562,0-0.843,0c-3.37,0.913-6.74,1.826-10.11,2.738c-6.653,2.633-12.876,6.532-18.324,10.531
		c-9.654,7.085-17.289,16.39-26.538,23.8c-15.549,12.457-30.914,23.593-52.445,30.33c-11.713,3.665-28.754,7.46-44.231,4.423
		c-6.918-1.357-13.596-2.673-19.588-5.055c-17.848-7.096-31.174-17.692-43.599-30.119
		C132.443,352.46,121.48,338.411,115.755,336.616z"/>
	<path style="opacity:0.5662;fill:#ED1C24;" d="M80.792,180.966c0.549-0.552,4.376-3.938,4.212-4.002
		c-4.774,2.808-9.549,5.617-14.322,8.425c-14.063,9.474-23.704,18.952-32.436,33.91c-2.944,5.043-7.217,12.159-7.793,18.956
		c4.563,3.861,9.127,7.723,13.69,11.584c2.808,2.878,5.617,5.757,8.425,8.635c1.334-4.001,2.668-8.004,4.002-12.005
		c5.913-15.255,6.919-37.256,14.112-51.392C73.304,189.926,76.875,184.899,80.792,180.966z"/>
	<path style="opacity:0.9032;fill:#ED1C24;" d="M149.666,81.342c4.386,6.183,8.569,14.462,18.535,12.637
		c1.995-0.365,3.986-0.128,5.476-0.842c-0.07-0.211-0.14-0.421-0.211-0.632c-4.225-3.246-7.223-8.675-10.11-13.269
		c-5.749-9.148-16.18-28.042-13.69-44.652c0.491-3.791,0.983-7.583,1.474-11.374c0.913-3.229,1.826-6.459,2.738-9.689
		c-0.14,0-0.281,0-0.421,0c-3.768,5.382-8.296,9.694-10.952,16.429C135.061,48.82,140.647,68.63,149.666,81.342z"/>
	<path style="opacity:0.9938;fill:#ED1C24;" d="M143.136,175.701c-15.508,3.261-25.864,11.433-33.068,22.958
		c-10.358,16.57-11.521,42.554-3.581,62.555c12.485,31.447,48.832,63.478,96.044,49.075c30.099-9.183,53.461-30.218,64.661-58.342
		c1.963-4.929,3.289-10.408,4.423-16.007c3.58-17.68-1.493-36.086-8.004-47.179c-15.003-25.565-38.217-40.539-78.983-40.44
		c-1.895,0.281-3.791,0.562-5.687,0.842c8.87-0.049,17.416,2.805,24.011,5.687c26.693,11.664,56.296,48.844,40.65,89.304
		c-9.083,23.489-27.885,38.603-54.341,44.652c-33.135,7.576-58.011-16.06-66.557-37.28c-3.488-8.661-5.745-23.204-2.106-33.7
		c3.798-10.955,11.546-20.113,23.8-22.537c12.546-2.481,19.482,5.069,20.852,14.954c0.233,1.685-0.077,5.249-1.053,6.529
		c-2.859-3.859-3.279-7.445-8.425-9.057c-16.17-5.066-19.998,15.381-12.637,24.853c13.768,17.718,38.38,3.929,43.388-12.427
		C194.337,194.629,168.906,170.283,143.136,175.701z"/>
	<path style="opacity:0.6536;fill:#ED1C24;" d="M450.855,127.89c-4.978,3.906-9.631,8.147-14.744,12.005
		c-22.323,16.847-51.446,34.235-92.884,25.275c-9.51-2.057-18.042-5.013-25.907-8.425c-0.14,0.14-0.281,0.281-0.421,0.421
		c6.255,16.746,14.294,30.187,28.645,38.755c35.306,21.077,72.89-12.573,88.04-32.015c7.299-9.366,13.752-19.778,19.377-30.751
		c0.776-1.513,4.772-10.396,4.423-10.742C455.209,124.239,453.032,126.064,450.855,127.89z"/>
	<path style="opacity:0.8576;fill:#ED1C24;" d="M148.612,249.84c-3.933-2.776-7.627-6.739-10.11-10.952
		c-1.234-2.095-1.623-5.549-3.37-7.161c-0.284,24.808,22.942,43.49,50.339,36.648c13.237-3.306,23.743-10.257,30.751-19.799
		c3.421-4.658,6.522-10.399,8.425-16.429c8.694-27.553-7.529-52.907-24.222-62.765c-7.605-4.491-17.189-6.58-29.276-6.529
		c-2.176,0.211-4.353,0.421-6.529,0.632c0.07,0.14,0.14,0.281,0.211,0.421c26.916,4.267,52.391,44.57,33.7,74.35
		C189.354,252.874,167.084,262.881,148.612,249.84z"/>
	<path style="opacity:0.9255;fill:#ED1C24;" d="M912.961,417.285c15.982,4.17,35.567,1.05,48.654-3.581
		c31.34-11.09,57.682-30.379,67.82-62.555c16.027-50.868-16.609-89.668-54.972-99.414c-6.803-1.728-14.275-1.925-22.747-1.896
		c-2.317,0.281-4.634,0.562-6.951,0.843c-5.987,1.32-11.766,2.543-17.06,4.634c-26.146,10.323-44.87,27.5-58.342,50.549
		c-3.252,5.563-5.216,12.766-6.951,19.588c-2.241,8.815-2.79,22.272-0.843,31.804C867.92,388.341,883.521,409.604,912.961,417.285z
		 M887.054,323.347c1.992-6.154,5.185-11.984,8.636-16.85c9.277-13.081,23.499-22.383,39.597-28.645
		c4.774-1.193,9.549-2.387,14.322-3.581c1.895-0.211,3.791-0.421,5.687-0.632c37.015-0.575,64.836,28.75,52.656,68.452
		c-7.365,24.007-24.158,38.732-46.758,47.601c-9.94,3.901-25.62,6.419-37.912,2.738C899.15,385.204,876.272,356.662,887.054,323.347
		z"/>
	<path style="opacity:0.5562;fill:#ED1C24;" d="M74.052,270.481c14.557,37.721,36.395,65.736,76.245,78.141
		c15.688,4.884,39.426,7.962,58.764,3.791c11.557-2.493,21.751-5.868,31.383-10.11c26.98-11.881,55.935-38.055,66.767-65.925
		c0.997-2.566-0.529-5.803,0-9.267c0.562-3.44,1.123-6.881,1.685-10.32c1.72-5.688,4.662-10.951,7.793-15.375
		c1.334-1.685,2.668-3.37,4.002-5.055c1.368-4.537,0.525-14.583-0.211-18.956c-2.638-15.681-6.15-27.654-12.848-38.965
		c-27.103-45.773-78.927-72.41-151.016-72.875c-3.089,0.14-6.179,0.281-9.267,0.421c-8.693,1.464-17.262,1.837-25.064,4.212
		c-35.307,10.751-66.493,29.736-80.458,61.712c-2.712,6.209-5.799,13.588-6.529,21.694c0.07,0,0.14,0,0.211,0
		c0.211-0.14,0.421-0.281,0.632-0.421c3.703-8.785,19.56-22.396,27.17-28.223c18.672-14.299,38.845-24.853,65.714-31.383
		c60.671-14.744,122.85,8.619,148.278,42.546c15.814,21.1,24.613,54.591,12.005,85.934c-13.917,34.599-48.095,61.506-88.461,69.716
		c-10.181,2.071-23.904,1.882-33.7-0.211c-39.474-8.434-62.505-32.834-75.824-67.399c-6.632-17.212-8.947-44.609-1.685-63.187
		c7.095-18.149,19.883-30.914,35.806-40.229c3.931-1.755,7.864-3.51,11.795-5.266c1.966-0.562,3.932-1.123,5.897-1.685
		c-10.266,0.196-18.57,3.149-26.117,6.108c-27.559,10.805-43.538,29.506-49.075,62.555c-1.393,8.312-1.075,18.952,0.632,26.96
		C70.143,256.77,71.525,263.932,74.052,270.481z"/>
	<path style="opacity:0.6718;fill:#ED1C24;" d="M296.469,469.94c3.159-0.842,6.319-1.685,9.478-2.527
		c1.193-1.474,2.387-2.949,3.581-4.423c3.548-4.443,9.058-8.909,13.901-12.005c4.328-2.767,9.174-5.346,14.112-7.372
		c2.583-1.06,5.731-1.381,7.793-2.949c0.071-19.364-20.832-30.987-36.859-34.963c-6.319-1.568-13.654-1.498-21.483-1.474
		c-4.423,0.632-8.847,1.264-13.269,1.896c-11.145,2.758-32.845,11.723-35.385,21.694c-1.534,6.021,3.9,16.094,5.897,19.377
		C252.576,460.908,272.326,475.21,296.469,469.94z M256.584,432.765c48.282-24.747,71.718,4.873,71.718,4.873
		c-25.129,0.173-29.638,19.664-29.638,19.664C250.946,443.749,256.584,432.765,256.584,432.765z"/>
	<path style="opacity:0.7676;fill:#ED1C24;" d="M692.018,288.54c11.894-5.208,22.164-13.966,27.381-25.907
		c13.056-29.882-7.008-57.57-28.223-65.925c-5.837-2.299-12.636-2.778-20.852-2.738c-2.106,0.281-4.213,0.562-6.319,0.842
		c-4.001,1.193-8.004,2.387-12.005,3.581c-9.959,4.144-16.593,10.732-24.011,17.271c0.07,0.14,0.14,0.281,0.211,0.421
		c6.242-3.04,19.963-2.039,26.538-0.211c21.508,5.98,30.683,20.17,34.542,44.02c1.54,9.518-1.588,19.581-4.212,25.907
		c-0.773,1.864-2.887,4.4-2.738,6.319c0.07,0,0.14,0,0.211,0C685.699,290.927,688.859,289.733,692.018,288.54z"/>
	<path style="opacity:0.6483;fill:#ED1C24;" d="M606.716,338.301c3.437,0.848,14.548,3.541,18.745,1.896c-0.14,0-0.281,0-0.421,0
		c-3.907-1.804-7.744-2.359-11.163-4.423c-12.87-7.772-28.059-26.148-22.326-48.864c0.975-3.863,2.514-7.601,4.212-10.742
		c0-0.07,0-0.14,0-0.211c-0.211,0-0.421,0-0.632,0c-8.61,6.868-16.174,10.668-18.956,23.59
		C571.202,322.65,590.359,334.267,606.716,338.301z"/>
	<path style="opacity:0.6796;fill:#ED1C24;" d="M172.834,590.416c-5.17,10.165-11.176,23.044-12.005,36.859c0.07,0,0.14,0,0.211,0
		c0.07-0.14,0.14-0.281,0.211-0.421c3.089-4.984,6.179-9.97,9.267-14.954c5.477-7.8,11.378-15.183,17.271-22.537
		c5.182-6.466,11.868-13.114,18.324-18.324c3.51-3.299,7.021-6.6,10.531-9.899c11.269-8.746,22.432-17.77,34.753-25.485
		c7.854-4.918,16.695-8.215,24.853-13.059c1.426-6.04,4.373-11.101,5.687-16.639c-0.351,0-0.702,0-1.053,0
		c-3.37,1.123-6.74,2.247-10.11,3.37c-8.963,3.507-18.286,6.911-26.328,11.584C214.059,538.57,189.028,558.577,172.834,590.416z"/>
	<path style="opacity:0.8759;fill:#ED1C24;" d="M187.999,532.284c12.413-1.99,20.99-8.487,25.275-18.535
		c9.58-22.468-8.301-42.105-30.119-41.914c-2.948,0.702-5.898,1.404-8.846,2.106c-7.823,3.167-14.393,9.789-17.482,17.692
		C148.706,512.415,166.104,535.794,187.999,532.284z M170.096,496.9c3.124-7.762,6.996-7.826,14.744-10.742
		c20.976,0.203,21.47,29.528,2.949,33.068C175.423,521.589,165.525,508.257,170.096,496.9z"/>
	<path style="opacity:0.7912;fill:#ED1C24;" d="M585.022,277.431c13.525-17.87,4.315-43.497-15.586-48.022
		c-10.301-2.342-18.719,3.356-21.483,10.11c-1.953,4.771-0.998,12.42,2.317,14.954c0.07,0,0.14,0,0.211,0
		c1.208-5.816,4.808-9.727,10.11-11.374c11.87-3.686,22.606,9.937,16.007,19.377c-5.314,7.602-19.883,6.99-27.17,1.685
		c-13.374-9.735-12.144-30.344-2.317-42.756c2.832-3.576,6.949-6.213,11.374-8.214c23.773-10.751,42.514,9.103,50.76,23.168
		c2.317,5.335,4.634,10.672,6.951,16.007c0.07,0,0.14,0,0.211,0c-1.004-32.993-19.28-57.904-53.287-57.711
		c-2.246,0.281-4.493,0.562-6.74,0.842c-4.89,1.143-9.617,2.373-13.901,4.212c-21.894,9.398-37.87,27.185-43.809,52.656
		c-2.14,9.179-1.896,22.966,0.211,32.015c0.594,2.55,0.398,7.398,2.317,8.636c4.633-0.07,9.268-0.14,13.901-0.211
		c3.106,0.5,5.885,1.292,8.425,2.106c0-0.07,0-0.14,0-0.211c-5.926-12.595-8.749-38.446-3.581-53.077
		c1.246-3.527,3.114-10.601,6.529-11.795c0,0.07,0,0.14,0,0.211c-11.584,22.902-1.341,46.687,16.85,55.394
		C558.498,292.701,577.023,288,585.022,277.431z"/>
	<path style="opacity:0.6178;fill:#ED1C24;" d="M649.683,238.256c-2.668,0.702-5.336,1.404-8.004,2.106
		c-8.477,3.636-15.312,10.927-18.114,20.22c-6.483,21.507,12.683,44.204,34.753,39.808c15.859-3.159,32.01-21.121,23.8-41.493
		C677.081,246.396,667.574,238.103,649.683,238.256z M655.37,279.959c-8.139,1.553-14.699-6.929-12.216-14.744
		c1.523-4.793,4.863-5.962,9.478-7.793C668.187,256.995,668.798,277.396,655.37,279.959z"/>
	<path style="opacity:0.5381;fill:#ED1C24;" d="M511.936,427.816c-8.037,10.131-13.542,20.899-16.007,36.859
		c-0.633,4.095-0.404,11.98,1.264,14.533c1.966,1.193,3.932,2.387,5.897,3.581c1.169,0.718,3.545,3.246,4.844,2.317
		c0.562-3.51,1.123-7.021,1.685-10.531c2.202-8.889,4.683-17.597,8.846-24.643c15.753-26.661,42.628-41.492,74.982-51.602
		c12.862-4.02,27.422-8.022,43.809-8.004c0-0.07,0-0.14,0-0.211c-3.408-2.471-24.272-2.746-31.172-2.738
		c-3.229,0.211-6.459,0.421-9.689,0.632c-6.458,1.053-12.919,2.106-19.377,3.159C550.445,397.878,526.673,409.24,511.936,427.816z"
		/>
	<path style="opacity:0.9148;fill:#ED1C24;" d="M483.502,439.189c-1.972,3.188-10.631,20.196-8.214,26.538
		c3.58,2.176,7.162,4.353,10.742,6.529c0.14-0.07,0.281-0.14,0.421-0.211c-0.559-28.925,15.903-49.532,31.804-62.134
		c5.546-4.212,11.093-8.425,16.639-12.637c1.966-1.334,3.932-2.668,5.897-4.002c-4.423,2.317-8.847,4.634-13.269,6.951
		C511.23,410.065,493.488,423.045,483.502,439.189z"/>
	<path style="opacity:0.5967;fill:#ED1C24;" d="M740.882,510.59c2.67-12.904,1.131-28.861-2.317-39.808
		c-12.524-39.76-45.972-73.839-98.782-73.718c-4.282,0.491-8.566,0.983-12.848,1.474c-8.122,1.865-15.636,4.13-22.537,7.161
		c-27.896,12.254-60.25,50.029-50.971,95.412c1.248,6.103,2.642,12.156,4.844,17.482c3.894,9.418,10.052,19.28,17.482,25.275
		c1.73,1.396,13.034,9.62,13.48,10.531c-9.02-1.285-16.911-1.172-23.8-4.002c-26.143-10.74-44.328-47.1-33.7-85.513
		c2.927-10.579,7.179-20.115,12.427-28.434c2.387-3.159,4.774-6.319,7.161-9.478c-5.466,2.063-10.5,8.26-13.901,12.637
		c-5.164,6.647-9.494,13.724-12.848,22.326c-8.409,21.567-4.318,55.048,5.476,71.822c8.341,14.286,18.655,24.824,34.963,31.172
		c4.915,1.913,10.493,2.894,16.007,4.002c1.895,0.14,3.791,0.281,5.687,0.421c-0.211,0.281-0.421,0.562-0.632,0.842
		c-5.616,3.931-11.234,7.864-16.85,11.795c-3.212,0.911-8.117-2.042-10.32-2.949c-10.004-4.116-17.525-9.696-24.011-17.271
		c-5.627-6.573-9.67-14.763-12.427-24.222c-2.949-10.12-3.971-20.304-7.793-29.066c-8.325-19.086-23.272-29.966-43.599-37.28
		c-0.07,0.14-0.14,0.281-0.211,0.421c0.07,0.14,0.14,0.281,0.211,0.421c2.803,1.29,4.466,4.064,6.74,5.897
		c11.562,9.323,20.508,22.925,25.275,38.965c3.59,12.079,3.877,26.176,8.214,37.07c7.679,19.287,21.737,31.615,43.809,36.648
		c0.07,0.14,0.14,0.281,0.211,0.421c0,0.14,0,0.281,0,0.421c-10.146,7.819-27.344,1.273-34.963-3.791
		c-14.54-9.665-23.19-23.938-27.802-43.599c-0.983-7.231-1.966-14.464-2.949-21.694c-1.538-7.353-3.662-14.167-6.319-20.22
		c-1.047-2.386-1.891-5.609-3.791-7.161c4.913,16.167,3.141,40.282-2.527,54.13c-13.642,33.329-51.65,58.574-100.046,49.707
		c0.07,0.281,0.14,0.562,0.211,0.842c2.527,1.544,5.055,3.089,7.582,4.634c4.929,2.883,11.251,4.436,17.482,5.897
		c30.908,7.247,59.936-10.98,72.454-26.749c4.003-5.043,8.494-9.845,10.742-16.639c0.07,0,0.14,0,0.211,0
		c0.842,2.738,1.685,5.476,2.527,8.214c3.432,8.172,8.886,15.884,15.375,21.062c3.721,2.527,7.442,5.055,11.163,7.582
		c2.317,0.983,4.634,1.966,6.951,2.949c-0.07,0.14-0.14,0.281-0.211,0.421c-11.002,3.178-22.069,7.389-33.91,10.32
		c-13.721,3.397-27.665,4.283-42.756,6.74c-13.987,2.277-32.708,1.849-45.284-1.264c-23.913-5.919-43.278-19.801-51.813-41.071
		c-6.175-15.389-2.759-36.362,8.214-44.231c9.205-6.601,20.143-1.994,21.062,9.267c-1.668,0.295-3.163-0.735-4.844-1.053
		c-6.006-1.135-10.477,3.047-11.795,6.74c-4.212,11.803,10.03,19.596,20.22,15.375c11.275-4.67,17.785-22.173,11.374-36.648
		c-2.327-5.253-6.995-9.603-11.795-12.427c-6.917-4.07-19.384-4.192-27.17-0.842c-14.621,6.289-22.753,20.655-26.328,38.123
		c-0.594,2.904-1.422,7.305-0.842,10.952c3.461,21.803,7.496,31.817,18.535,45.705c18.21,22.911,59.452,35.964,101.731,28.013
		c44.528-8.375,84.539-18.317,115.421-40.018c12.378-8.698,23.038-19.009,34.753-28.223c4.998-3.931,7.916-2.454,14.954-4.002
		c7.304-1.606,22.93-6.353,25.907-11.584c-0.07-0.14-0.14-0.281-0.211-0.421c-9.179-0.774-18.061-6.402-24.222-10.742
		c-1.741,0.742-2.347,2.053-4.634,2.317c-23.441-9.08-39.799-44.821-29.487-77.72c8.036-25.637,40.406-54.406,78.141-46.126
		c35.177,7.719,70.73,41.94,58.764,89.514c-1.556,6.186-3.589,12.466-6.529,17.482c-6.974,11.898-16.742,20.613-28.645,27.591
		c-4.001,1.825-8.004,3.651-12.005,5.476c-1.685,0.562-3.37,1.123-5.055,1.685c0,0.07,0,0.14,0,0.211
		C708.914,572.819,733.419,546.669,740.882,510.59z"/>
	<path style="opacity:0.567;fill:#ED1C24;" d="M928.968,372.843c5.492,1.148,12.695,0.307,17.271-0.843
		c19.576-4.918,34.096-15.867,39.808-34.542c8.975-29.348-14.422-50.505-41.071-50.339c-4.706,1.804-10.324,1.423-14.744,3.159
		c-10.387,4.081-19.263,11.109-24.853,20.009C888.644,336.933,901.144,367.025,928.968,372.843z M936.761,322.083
		c1.65-5.914,5.439-7.532,10.742-9.899c19.284-0.506,19.81,24.127,3.37,26.96C942.089,340.657,934.328,330.807,936.761,322.083z"/>
	<path style="opacity:0.6274;fill:#ED1C24;" d="M646.524,481.314c-10.964-3.929-17.572,5.647-18.956,13.269
		c-3.181,17.52,20.853,26.829,34.542,18.535c12.183-7.381,18.812-25.553,11.374-42.756c-4.15-9.599-12.473-16.235-22.326-20.22
		c-3.997-1.617-10.633-4.098-16.639-3.159c-6.748,1.055-12.071,1.725-17.271,4.002c-19.371,8.479-33.74,34.104-22.747,60.87
		c7.538,18.353,21.818,31.023,42.546,36.227c8.666,2.176,20.78,1.071,28.223-1.264c23.109-7.25,45.83-34.129,35.385-66.978
		c-5.106-16.059-16.896-28.008-31.804-34.331c-4.128-1.751-8.925-2.226-13.48-3.791c-0.07,0.07-0.14,0.14-0.211,0.211
		c3.791,2.317,7.583,4.634,11.374,6.951c8.739,6.42,16.251,15.849,19.798,27.381c8.4,27.305-6.052,47.157-25.485,53.919
		c-6.505,2.264-16.792,2.53-23.379,0c-16.106-6.186-32.615-29.863-18.324-49.496c6.037-8.293,20.117-14.761,30.961-6.319
		c4.173,3.249,4.11,7.813,5.687,13.901c-0.14,0.14-0.281,0.281-0.421,0.421C652.032,486.813,650.711,482.814,646.524,481.314z"/>
	<path style="opacity:0.9479;fill:#ED1C24;" d="M869.783,426.973c-3.58,0.702-7.161,1.404-10.742,2.106
		c-8.576,2.177-17.19,4.095-25.064,7.161c-13.784,5.368-25.28,12.199-37.28,18.745c-0.351-0.14-0.702-0.281-1.053-0.421
		c-2.116-5.163-7.254-9.779-10.531-14.112c-7.856-10.387-16.431-20.934-26.538-29.066c-7.496-6.03-14.16-13.326-21.905-19.167
		c-19.095-14.401-40.347-27.383-65.504-35.595c-9.352-3.053-19.363-4.782-29.908-6.74c-5.476-0.491-10.953-0.983-16.429-1.474
		c-5.125,0.07-10.251,0.14-15.375,0.211c-3.721,0.211-7.442,0.421-11.163,0.632c-6.646,1.135-13.676,1.846-19.799,3.37
		c-42.813,10.656-72.638,27.35-99.203,53.919c-8.653,8.654-15.791,18.236-21.062,30.33c-1.249,2.866-5.753,9.486-3.791,12.848
		c2.808,2.036,5.617,4.072,8.425,6.108c0.281-0.07,0.562-0.14,0.842-0.211c4.229-13.462,20.139-29.979,30.33-38.123
		c23.19-18.531,48.165-32.896,81.721-41.493c6.835-1.751,13.482-2.1,21.062-3.37c13.066-2.189,30.697-1.267,42.756,1.264
		c9.208,1.932,18.383,3.562,26.538,6.74c20.175,7.86,37.742,18.06,53.709,30.119c3.791,3.299,7.583,6.6,11.374,9.899
		c4.423,4.212,8.847,8.425,13.269,12.637c11.021,13.057,22.046,26.118,33.068,39.176c-1.755,3.931-3.511,7.864-5.266,11.795
		c-3.261,8.018-4.872,16.097-6.74,25.696c-0.689,3.542-2.345,10.567-1.264,14.322c0.07-0.14,0.14-0.281,0.211-0.421
		c2.106-3.861,4.213-7.723,6.319-11.584c3.952-6.284,8.913-11.803,13.48-17.482c3.089-2.738,6.179-5.476,9.267-8.214
		c18.241-14.304,39.746-23.856,65.925-30.54c8.424-1.404,16.851-2.808,25.275-4.212c4.423-0.281,8.847-0.562,13.269-0.842
		c5.405-0.14,10.813-0.281,16.218-0.421c14.631,2.357,37.81,3.276,52.445,0.421c37.72-7.357,64.527-25.105,83.828-50.76
		c9.619-12.786,17.188-28.141,22.537-45.073c2.226-7.047,3.542-14.611,5.055-22.326c3.577-18.245,0.383-39.606-4.213-54.13
		c-11.467-36.243-34.623-63.971-70.769-75.403c-10.801-3.416-22.922-5.502-37.07-5.476c-6.95,0.772-13.902,1.545-20.852,2.317
		c-11.859,2.633-22.934,5.736-33.068,10.11c-39.445,17.024-65.852,46.593-81.721,87.408c-6.181,15.897-11.021,41.102-6.319,62.344
		c1.822,8.232,4.102,15.882,7.161,22.958c5.49,12.698,14.43,25.557,24.643,33.7c4.045,3.225,10.893,6.713,14.322,10.11
		c0,0.07,0,0.14,0,0.211C870.064,426.973,869.924,426.973,869.783,426.973z M851.459,320.609
		c2.718-9.957,6.164-20.023,10.952-28.223c15.847-27.139,37.148-48.164,68.031-60.238c6.341-2.479,13.308-4.158,20.43-5.687
		c4.001-0.491,8.004-0.983,12.005-1.474c45.713-0.579,69.881,24.097,82.564,56.657c4.826,12.391,8.39,32.038,5.266,49.286
		c-1.292,7.133-2.597,14.006-4.634,20.43c-9.619,30.346-30.265,55.628-58.974,66.978c-8.41,3.325-17.25,4.384-27.592,6.108
		c-8.301,1.384-19.81,1.763-28.434,0.421c-9.758-0.702-19.519-1.404-29.276-2.106C867.795,412.014,838.387,368.498,851.459,320.609z
		"/>
	<path style="opacity:0.5316;fill:#ED1C24;" d="M354.39,497.953c4.441-1.732,9.406-2.646,14.533-3.581
		c18.899-3.446,32.792,6.595,38.965,17.06c2.296,3.893,3.109,8.834,4.002,14.112c1.724,10.189-3.079,18.47-5.476,24.853
		c1.988-0.646,3.629-2.91,4.844-4.423c7.156-8.911,13.708-22.688,7.582-37.912c-6.295-15.645-19.81-25.214-41.493-25.485
		c-2.738,0.211-5.476,0.421-8.214,0.632c-6.444,1.171-12.752,2.253-18.324,4.423c-23.231,9.049-41.838,26.401-50.971,49.496
		c-7.363,18.62-6.528,42.085,2.949,57.5c1.204,1.958,2.644,5.444,4.634,6.529c3.861,0.632,7.723,1.264,11.584,1.896
		c-0.24-0.847-0.289-0.806-0.843-1.264c-1.685-2.527-3.37-5.055-5.055-7.582c-3.069-5.186-5.124-11.389-6.74-17.903
		c-1.857-7.485-1.579-18.099,0.211-25.275C313.305,524.059,330.242,507.373,354.39,497.953z"/>
	<path style="opacity:0.6699;fill:#ED1C24;" d="M118.493,485.526c17.609-22.262,23.838-42.856,56.868-50.549
		c7.117-1.658,17.04-2.423,24.853-1.053c-0.211-0.281-0.421-0.562-0.632-0.842c-3.791-1.123-7.583-2.247-11.374-3.37
		c-9.724-2.695-20.1-3.192-30.54-5.266c-6.809-1.123-13.621-2.247-20.43-3.37c-2.668,5.476-5.336,10.953-8.004,16.429
		c-9.918,16.968-19.94,33.943-31.172,49.707c-5.077,7.125-10.583,13.885-16.007,20.641c-2.005,2.498-8.229,6.266-9.267,8.846
		c4.844-1.755,9.689-3.511,14.533-5.266C99.457,505.946,110.627,495.472,118.493,485.526z"/>
	<path style="opacity:0.7896;fill:#ED1C24;" d="M149.034,549.766c3.412-1.115,6.406-2.425,9.267-4.002c0-0.211,0-0.421,0-0.632
		c-13.923-9.609-24.811-33.837-15.375-55.604c5.889-13.586,25.152-27.475,44.652-27.381c0-0.07,0-0.14,0-0.211
		c-3.108-2.54-15.566-2.757-21.483-2.738c-4.581,1.748-9.428,1.299-13.48,2.949c-12.401,5.05-20.977,14.865-25.064,28.223
		c-5.996,19.601,2.396,39.602,10.742,50.339C140.618,543.703,144.474,549.322,149.034,549.766z"/>
	<path style="opacity:0.9948;fill:#ED1C24;" d="M619.353,671.506c0.351-0.07,0.702-0.14,1.053-0.211
		c1.894-4.617,4.85-8.725,6.319-14.112c1.303-4.781,1.009-11.819-0.211-16.218c-4.995-18.017-17.769-25.401-41.071-25.275
		c-5.125,0.842-10.251,1.685-15.375,2.527c-6.627,1.681-12.666,4.308-18.745,6.319c0,0.14,0,0.281,0,0.421
		c20.083-3.235,51.172,3.081,56.657,16.429c2.412,5.868-0.725,11.069-1.053,16.429C611.004,660.872,617.533,666.444,619.353,671.506
		z"/>
	<path style="opacity:0.9284;fill:#ED1C24;" d="M337.119,483.631c12.018-6.115,32.391-14.625,51.813-11.163
		c18.909,3.371,32.856,11.546,39.597,26.96c13.23,30.252-6.009,59.058-30.751,64.661c0,0.07,0,0.14,0,0.211
		c38.035,0.546,61.231-32.784,45.284-69.716c-10.108-23.408-32.146-37.392-65.925-37.28c-4.423,0.491-8.847,0.983-13.269,1.474
		c-8.976,1.899-17.459,4.258-25.064,7.582c-24.321,10.633-42.258,27.997-55.183,50.128c-3.718,6.367-6.725,14.045-9.057,21.483
		c-0.991,3.16-1.217,7.028-2.738,9.689c-4.602,1.408-8.444,4.78-12.216,7.161c-8.441,5.328-15.946,11.269-23.59,17.271
		c-31.745,24.927-57.506,58.621-76.035,96.676c0.07,0.281,0.14,0.562,0.211,0.842c0.07,0,0.14,0,0.211,0
		c4.352-0.562,8.706-1.123,13.059-1.685c4.563-0.14,9.127-0.281,13.69-0.421c8.445-18.111,20.992-33.784,32.646-48.864
		c7.813-10.109,16.188-20.665,26.117-28.645c6.242-5.017,11.865-10.628,18.535-15.375c1.825-1.264,3.651-2.528,5.476-3.791
		c-0.114,4.905,2.315,24.263,4.423,25.696c1.595,0.899,7.257,1.119,9.057,0.632c-0.304-5.202-1.36-11.314-2.317-17.06
		c-1.721-10.33,2.164-26.781,4.423-34.121C294.71,516.102,311.275,496.781,337.119,483.631z"/>
	<path style="opacity:0.7569;fill:#ED1C24;" d="M57.413,486.369c-6.584,8.397-14.124,16.832-22.537,23.379
		c-5.464,4.253-11.37,7.721-17.482,11.374c0.07,0.14,0.14,0.281,0.211,0.421c38.815-1.727,58.787-22.432,75.613-46.126
		c9.815-13.822,18.636-28.121,24.222-46.337c11.104-36.215-2.805-74.997-16.85-97.939c-3.234-5.284-8.982-16.053-13.269-19.799
		c2.738,8.354,5.476,16.71,8.214,25.064c3.318,10.564,4.615,21.752,6.74,33.7c3.01,16.922-0.244,37.134-4.634,49.707
		C88.345,446.442,73.115,466.342,57.413,486.369z"/>
	<path style="opacity:0.883;fill:#ED1C24;" d="M1093.254,561.982c-13.827,39.287,1.461,81.388,19.377,104.679
		c3.57,4.641,12.516,15.026,18.393,17.896v-27.789c-3.794-3.47-6.277-8.987-8.915-13.486c-9.604-16.379-17.391-45.747-9.899-70.137
		c4.156-13.53,10.64-20.007,18.814-28.859v-21.022c-3.808,1.714-7.882,2.002-11.232,3.966
		C1107.006,534.724,1098.529,546.992,1093.254,561.982z"/>
	<path style="opacity:0.6136;fill:#ED1C24;" d="M293.099,329.455c-15.636,6.755-29.845,15.705-45.916,22.115
		c-12.584,5.02-25.389,7.047-40.861,9.689c-9.777,1.669-23.094,1.386-32.646-0.421c-9.267-1.753-17.787-3.966-25.696-6.529
		c0,0.07,0,0.14,0,0.211c15.61,18.312,55.892,31.712,89.304,21.694c19.868-5.957,36.648-15.192,51.392-26.328
		c4.423-3.861,8.847-7.723,13.269-11.584c5.756-5.195,11.515-10.391,17.271-15.586c0-0.07,0-0.14,0-0.211c-0.421,0-0.843,0-1.264,0
		c-2.878,0.491-5.757,0.983-8.636,1.474C303.652,325.435,298.193,327.254,293.099,329.455z"/>
	<path style="opacity:0.7091;fill:#ED1C24;" d="M393.777,576.305c-8.555,1.389-18.62-0.887-24.643-3.159
		c-2.531-0.955-6.65-3.976-9.057-3.791c0.07,0.211,0.14,0.421,0.211,0.632c6.631,7.232,12.021,13.098,22.115,17.06
		c11.138,4.372,28.803,3.252,39.808-0.211c24.389-7.675,39.828-23.095,48.864-46.126c3.022-7.702,7.04-19.302,5.055-31.172
		c-1.29-7.712-2.119-14.872-4.634-21.273c-13.209-33.62-44.868-52.333-92.253-52.234c-4.454,1.688-11.899,0.952-16.429,2.106
		c-18.865,4.807-44.409,14.894-46.758,35.385c0.07,0,0.14,0,0.211,0c0.491-0.491,0.983-0.983,1.474-1.474
		c3.44-2.527,6.881-5.055,10.32-7.582c7.144-4.705,15.444-8.683,24.432-11.374c48.493-14.517,93.866,6.401,104.469,45.073
		c3.442,12.556,0.945,28.224-3.159,37.912C443.697,559.932,423.207,571.525,393.777,576.305z"/>
	<path style="opacity:0.6281;fill:#ED1C24;" d="M350.599,234.254c-3.887,1.463-8.129,0.958-11.584,2.317
		c-10.078,3.963-17.684,12.075-21.483,22.326c-8.37,22.584,8.485,41.202,25.064,45.705c2.581,0.701,6.596,1.797,10.11,1.264
		c16.772-2.545,26.966-9.548,32.436-23.168C395.377,257.21,373.944,234.302,350.599,234.254z M354.601,290.911
		c-14.293,2.611-27.149-12.159-22.958-26.117c3.109-10.353,8.209-11.385,17.482-15.375
		C378.186,248.877,379.85,286.299,354.601,290.911z"/>
	<path style="opacity:0.5078;fill:#ED1C24;" d="M516.148,362.102c-1.962,1.551-5.56,3.244-6.74,5.476c0.07,0,0.14,0,0.211,0
		c5.43-1.741,11.031-2.129,15.797-4.212c12.746-5.571,26.933-23.011,20.852-43.388c-1.298-4.351-3.261-8.477-5.687-11.795
		c-10.075-13.779-31.657-18.82-50.971-10.32c-3.411,1.501-7.182,3.05-9.478,5.687c-0.14-0.07-0.281-0.14-0.421-0.211
		c2.157-6.075,1.107-13.456,2.317-20.852c0.211-4.563,0.421-9.127,0.632-13.69c1.577-9.627,1.388-18.918,3.581-27.381
		c8.923-34.441,32.455-54.985,67.82-63.187c12.73-2.952,30.38-2.212,42.124,1.264c9.858,2.918,19.587,6.372,27.802,11.163
		c2.878,1.685,5.757,3.37,8.635,5.055c4.072-1.474,8.144-2.949,12.216-4.423c4.914-1.053,9.83-2.106,14.744-3.159
		c0-0.211,0-0.421,0-0.632c-4.984-3.721-9.97-7.442-14.954-11.163c-20.538-12.964-44.184-22.594-77.72-22.537
		c-5.125,0.632-10.251,1.264-15.375,1.896c-10.535,2.606-20.962,5.461-29.487,10.32c-34.646,19.75-52.044,43.181-61.502,88.251
		c-2.05,9.768-1.213,20.463-2.949,31.172c-1.266,7.81,0.137,15.497-1.264,22.537c-1.694,8.514-3.848,16.103-6.951,23.168
		c-1.465,3.336-4.833,6.612-5.266,10.531c4.086,6.26,7.667,13.046,9.899,21.273c8.519,31.394-9.349,61.995-23.379,77.509
		c0.14,0.211,0.281,0.421,0.421,0.632c1.895,0.983,3.791,1.966,5.687,2.949c7.028-4.465,14.494-8.202,19.588-14.533
		c10.779-13.396,21.887-39.074,14.954-64.45c-2.122-7.767-5.368-13.976-8.636-20.22c0.494-2.634,6.712-10.906,8.425-13.901
		c3.485-6.095,4.202-13.639,7.582-20.22c0.07,0,0.14,0,0.211,0c7.058,4.816,13.17,8.669,16.639,17.06
		c8.575,20.745-6.148,43.807-14.954,55.604c0,0.07,0,0.14,0,0.211c5.371-1.105,8.984-4.521,12.637-7.372
		c12.82-10.002,30.443-36.052,16.639-56.657c-3.488-5.206-9.603-9.771-15.797-12.216c-1.44-0.569-11.37-2.75-11.795-3.37
		c5.535-0.328,12.019-1.537,17.903-0.421c19.809,3.756,39.263,17.479,28.645,42.125
		C526.063,351.993,521.244,358.073,516.148,362.102z"/>
	<path style="opacity:0.7554;fill:#ED1C24;" d="M389.143,394.959c-8.475,2.577-22.224,4.066-32.225,1.474
		c-8.394-2.175-15.431-5.406-21.905-9.478c-2.738-1.895-5.476-3.791-8.214-5.687c0,0.07,0,0.14,0,0.211
		c1.053,3.65,2.106,7.302,3.159,10.952c5.167,12.571,13.661,22.294,24.853,28.855c28.184,16.522,64.378,0.941,77.93-18.114
		c9.57-13.455,13.509-33.961,3.791-50.339c-1.672-2.819-4.108-8.429-7.161-9.689C430.632,372.581,411.395,388.192,389.143,394.959z"
		/>
	<path style="opacity:0.9588;fill:#ED1C24;" d="M416.945,199.291c0.803-0.844,4.963-4.916,4.634-5.055
		c-3.65,1.264-7.302,2.528-10.952,3.791c-12.058,5.273-21.027,14.422-23.8,29.066c-2.768,14.615,7.211,25.603,14.954,30.961
		c1.358,0.94,11.287,5.559,12.427,4.002c0-0.07,0-0.14,0-0.211c-12.362-8.799-17.498-26.895-9.899-44.441
		C407.271,210.563,412.104,204.378,416.945,199.291z"/>
	<path style="opacity:0.6504;fill:#ED1C24;" d="M1080.827,153.796c16.031-4.925,28.83-14.213,36.648-27.381
		c2.521-4.246,4.348-9.437,5.687-14.744c3.404-13.492-0.439-28.4-5.687-37.07c-12.453-20.572-35.314-31.055-68.452-30.961
		c-4.633,0.562-9.268,1.123-13.901,1.685c0.07,0.14,0.14,0.281,0.211,0.421c7.008-0.143,13.772,1.852,19.377,3.581
		c20.905,6.445,36.976,15.397,46.126,33.489c4.572,9.04,6.538,24.256,2.317,35.385c-6.536,17.234-19.798,29.964-35.806,37.701
		c0.07,0.14,0.141,0.281,0.211,0.421C1071.98,155.481,1076.404,154.639,1080.827,153.796z"/>
	<path style="opacity:0.9121;fill:#ED1C24;" d="M794.38,246.259c7.275-10.208,16.187-20.164,25.275-28.645
		c3.791-3.37,7.583-6.74,11.374-10.11c-0.14-0.211-0.281-0.421-0.421-0.632c-6.388-1.916-11.07-4.387-20.22-4.423
		c-4.706,1.826-9.188,1.532-13.059,3.791c-12.335,7.2-25.247,23.343-19.798,45.073c1.146,4.571,2.871,9.041,5.055,12.637
		C783.585,263.568,792.847,248.411,794.38,246.259z"/>
	<path style="opacity:0.7418;fill:#ED1C24;" d="M565.223,86.818c0.07,0.14,0.14,0.281,0.211,0.421
		c24.755-0.351,47.708,9.332,65.293,17.06c6.107,3.229,12.217,6.459,18.324,9.689c0.07-0.14,0.14-0.281,0.211-0.421
		c-1.685-7.511-3.37-15.025-5.055-22.537c-7.34-23.837-19.923-50.567-41.703-59.606c-4.563,8.213-9.127,16.429-13.69,24.643
		C581.797,67.279,572.838,76.469,565.223,86.818z"/>
	<path style="opacity:0.8514;fill:#ED1C24;" d="M735.406,208.558c-4.072-4.352-8.144-8.706-12.216-13.059
		c-34.15-42.649-84.625-87.079-161.126-86.987c-7.511,0.772-15.025,1.545-22.537,2.317c-13.611,2.747-25.785,6.224-37.07,11.163
		c-35.07,15.348-62.478,47.485-74.56,85.934c-5.636,17.934-7.169,39.007-13.269,56.447c-3.396,9.708-7.75,19.184-12.848,27.381
		c-2.191,3.523-7.724,9.156-8.636,13.059c0.07,0.07,0.14,0.14,0.211,0.211c9.038-0.115,15.415,3.151,22.537,4.002
		c2.808-3.37,5.617-6.74,8.425-10.11c7.148-9.98,13.602-21.173,17.692-34.121c4.059-12.85,4.717-27.918,8.425-41.493
		c4.955-18.139,11.818-33.264,21.905-46.126c20.184-25.739,71.537-51.791,121.74-41.703c10.9,2.19,20.979,4.495,30.33,8.214
		c15.507,6.167,29.353,14.757,41.703,24.222c6.739,5.897,13.481,11.795,20.22,17.692c3.37,0.351,6.74,0.702,10.11,1.053
		c6.964,1.378,16.773,2.279,21.694,6.108c2.747,2.137,4.433,7.808,5.897,11.163c8.537,19.562,10.419,48.268-0.632,67.189
		c-11.045,18.91-27.41,29.402-52.445,34.542c-6.318,1.297-15.729,1.741-22.537,0.421c-7.286-1.413-14.03-2.945-20.22-5.476
		c-3.37-1.544-6.74-3.089-10.11-4.634c0,0.07,0,0.14,0,0.211c9.614,24.321,39.306,49.699,77.088,40.861
		c5.554-1.299,10.96-2.93,15.797-5.055c26.289-11.548,38.318-33.035,43.809-65.714c0.868-5.163-0.012-11.896-0.842-16.007
		C750.359,232.519,744.616,220.301,735.406,208.558z"/>
	<path style="opacity:0.7211;fill:#ED1C24;" d="M763.84,310.92c0.983-3.089,1.966-6.179,2.949-9.267c-0.14,0-0.281,0-0.421,0
		c-2.948,3.299-5.898,6.6-8.846,9.899c-8.555,11.942-17.374,30.951-12.848,52.866c0.952,4.611,2.396,9.209,4.002,13.059
		c3.552,8.516,7.958,13.854,16.429,17.482c1.671,0.716,5.67,3.036,7.372,2.106c-7.933-16.713-16.897-41.419-12.216-67.399
		C761.453,323.418,762.647,317.168,763.84,310.92z"/>
	<path style="opacity:0.8447;fill:#ED1C24;" d="M367.87,324.4c-2.948,0.632-5.898,1.264-8.846,1.896
		c-9.44,3.672-16.566,10.988-20.22,20.43c-8.605,22.237,9.695,48.255,33.068,44.441c14.594-2.381,24.688-10.032,29.066-22.537
		C409.473,344.25,390.952,324.236,367.87,324.4z M367.238,369.473c-7.903,1.426-13.952-6.586-11.795-14.112
		c1.348-4.703,4.574-5.711,8.846-7.582C380.067,347.281,380.19,367.136,367.238,369.473z"/>
	<path style="opacity:0.6347;fill:#ED1C24;" d="M1124.004,595.05c-1.969,11.862,3.425,25.915,7.019,34.357v-62.076
		c-1.131,3.775-2.996,6.57-4.281,10.658C1125.1,583.214,1125.015,588.962,1124.004,595.05z"/>
	<path style="opacity:0.5712;fill:#ED1C24;" d="M216.854,534.601c0.07,0,0.14,0,0.211,0c3.721-2.597,7.442-5.196,11.163-7.793
		c8.346-11.767,12.45-36.679,5.476-52.656c-7.209-16.515-22.109-25.79-46.126-25.696c-5.27,1.918-13.001-0.108-16.85,3.159
		c33.784-0.604,61.498,24.237,53.287,61.502C222.286,520.966,219.522,527.875,216.854,534.601z"/>
	<path style="opacity:0.6071;fill:#ED1C24;" d="M1035.964,133.576c-2.808-1.053-5.617-2.106-8.425-3.159c0,0.07,0,0.14,0,0.211
		c1.89,3.463,5.888,5.585,9.689,7.161c15.166,6.288,30.363-1.471,36.648-11.374c17.484-27.546-3.782-56.846-34.542-56.657
		c-3.37,0.702-6.74,1.404-10.11,2.106c-10.376,3.923-18.277,11.221-23.59,20.22c-15.771,26.715,0.993,59.919,23.8,66.767
		c7.084,2.127,14.306-0.777,21.062-1.053c-0.07-0.14-0.14-0.281-0.211-0.421c-15.242-3.322-28.7-13.063-34.331-26.117
		c-10.072-23.345,3.869-44.477,24.432-48.022c18.608-3.208,32.718,17.603,25.696,34.963
		C1062.203,127.793,1051.235,137.098,1035.964,133.576z"/>
</g>
</svg>
